<svg style="width:0; height:0; visibility:hidden;" xmlns="http://www.w3.org/2000/svg">

    //bigSvg
        <symbol id="svg-big" viewBox="0 0 1000 1011">
        <g clip-path="url(#clip0_112_518)">
        
            <path d="M294.97 442.392H272.954V432.408H264.762V490.008H273.722V511H219.962V490.008H228.922V432.408H220.73V442.392H198.714V411.416H294.97V442.392ZM371.805 512.792C356.189 512.792 344.115 508.696 335.581 500.504C327.133 492.312 322.909 479.213 322.909 461.208C322.909 443.203 327.133 430.104 335.581 421.912C344.115 413.72 356.189 409.624 371.805 409.624C387.421 409.624 399.453 413.72 407.901 421.912C416.435 430.104 420.701 443.203 420.701 461.208C420.701 479.213 416.435 492.312 407.901 500.504C399.453 508.696 387.421 512.792 371.805 512.792ZM371.805 490.008C374.707 490.008 376.883 489.24 378.333 487.704C379.784 486.168 380.509 483.779 380.509 480.536V441.88C380.509 438.637 379.784 436.248 378.333 434.712C376.883 433.176 374.707 432.408 371.805 432.408C368.904 432.408 366.728 433.176 365.277 434.712C363.827 436.248 363.101 438.637 363.101 441.88V480.536C363.101 483.864 363.827 486.296 365.277 487.832C366.728 489.283 368.904 490.008 371.805 490.008ZM497.245 512.792C483.847 512.792 473.479 509.848 466.141 503.96C458.887 498.072 455.26 488.515 455.26 475.288V432.408H448.861V411.416H496.221V432.408H491.101V481.816C491.101 484.632 491.698 486.723 492.893 488.088C494.173 489.368 496.05 490.008 498.525 490.008C500.999 490.008 502.834 489.368 504.029 488.088C505.309 486.723 505.949 484.632 505.949 481.816V432.408H500.829V411.416H544.733V432.408H538.333V475.288C538.333 488.515 534.791 498.072 527.709 503.96C520.626 509.848 510.471 512.792 497.245 512.792ZM670.204 479H663.804V504.6C660.05 506.733 654.546 508.653 647.292 510.36C640.124 511.981 632.359 512.792 623.996 512.792C608.039 512.792 595.538 508.611 586.492 500.248C577.447 491.8 572.924 478.787 572.924 461.208C572.924 443.203 577.404 430.104 586.364 421.912C595.41 413.72 608.295 409.624 625.02 409.624C633.127 409.624 640.722 410.477 647.804 412.184C654.887 413.891 660.22 415.811 663.804 417.944V448.536H631.804V442.52C631.804 438.936 631.036 436.376 629.5 434.84C628.05 433.219 625.703 432.408 622.46 432.408C619.218 432.408 616.828 433.219 615.292 434.84C613.842 436.376 613.116 438.936 613.116 442.52V479.896C613.116 483.48 613.842 486.083 615.292 487.704C616.828 489.24 619.218 490.008 622.46 490.008C625.703 490.008 628.05 489.24 629.5 487.704C631.036 486.083 631.804 483.48 631.804 479.896V479H624.892V459.928H670.204V479ZM800.538 432.408H794.138V490.008H800.538V511H752.154V490.008H758.298V468.888H740.378V490.008H746.522V511H698.138V490.008H704.538V432.408H698.138V411.416H746.522V432.408H740.378V451.864H758.298V432.408H752.154V411.416H800.538V432.408ZM108.038 686V665.008H114.438V607.408H108.038V586.416H194.438V625.072H165.766V607.408H150.278V627.632H161.542V642.224H150.278V665.008H165.766V644.784H194.438V686H108.038ZM297.336 586.416H339.32V607.408H332.92V686H296.952L259.448 628.272V665.008H265.592V686H223.608V665.008H230.008V607.408H223.608V586.416H269.816L303.48 637.744V607.408H297.336V586.416ZM465.065 654H458.665V679.6C454.91 681.733 449.406 683.653 442.153 685.36C434.985 686.981 427.219 687.792 418.857 687.792C402.899 687.792 390.398 683.611 381.353 675.248C372.307 666.8 367.785 653.787 367.785 636.208C367.785 618.203 372.265 605.104 381.225 596.912C390.27 588.72 403.155 584.624 419.881 584.624C427.987 584.624 435.582 585.477 442.665 587.184C449.747 588.891 455.081 590.811 458.665 592.944V623.536H426.665V617.52C426.665 613.936 425.897 611.376 424.361 609.84C422.91 608.219 420.563 607.408 417.321 607.408C414.078 607.408 411.689 608.219 410.153 609.84C408.702 611.376 407.977 613.936 407.977 617.52V654.896C407.977 658.48 408.702 661.083 410.153 662.704C411.689 664.24 414.078 665.008 417.321 665.008C420.563 665.008 422.91 664.24 424.361 662.704C425.897 661.083 426.665 658.48 426.665 654.896V654H419.753V634.928H465.065V654ZM492.998 686V665.008H499.398V607.408H492.998V586.416H547.014V607.408H535.238V665.008H546.758V653.232H572.23V686H492.998ZM600.943 686V665.008H607.343V607.408H600.943V586.416H649.583V607.408H643.183V665.008H649.583V686H600.943ZM718.693 687.792C710.501 687.792 702.735 687.109 695.397 685.744C688.143 684.293 682.554 682.672 678.629 680.88V655.536H706.789C706.789 658.181 707.386 660.101 708.581 661.296C709.775 662.491 711.951 663.088 715.109 663.088C717.754 663.088 719.631 662.704 720.741 661.936C721.935 661.083 722.533 659.845 722.533 658.224C722.533 656.859 721.978 655.707 720.869 654.768C719.759 653.744 717.839 652.72 715.109 651.696L704.101 647.856C694.629 644.272 687.802 640.048 683.621 635.184C679.525 630.32 677.477 623.749 677.477 615.472C677.477 605.403 680.762 597.765 687.333 592.56C693.989 587.269 705.039 584.624 720.485 584.624C727.909 584.624 734.863 585.392 741.349 586.928C747.919 588.379 753.21 590.341 757.221 592.816V615.728H731.621C731.621 611.461 728.975 609.328 723.685 609.328C721.125 609.328 719.29 609.669 718.181 610.352C717.157 610.949 716.645 612.059 716.645 613.68C716.645 615.131 717.242 616.283 718.437 617.136C719.717 617.989 721.765 618.885 724.581 619.824L735.717 623.664C744.762 626.736 751.333 630.747 755.429 635.696C759.61 640.56 761.701 646.96 761.701 654.896C761.701 665.733 758.031 673.925 750.693 679.472C743.439 685.019 732.773 687.792 718.693 687.792ZM891.982 607.408H885.582V665.008H891.982V686H843.598V665.008H849.742V643.888H831.822V665.008H837.966V686H789.582V665.008H795.982V607.408H789.582V586.416H837.966V607.408H831.822V626.864H849.742V607.408H843.598V586.416H891.982V607.408Z" fill="black"/>
        </g>
    </symbol>


</svg>